<mxfile host="app.diagrams.net" modified="2023-10-17T05:07:22.958Z" agent="Mozilla/5.0 (Windows NT 10.0; Win64; x64; rv:109.0) Gecko/20100101 Firefox/118.0" etag="_8YOwl_VeUsVdDFbluv8" version="22.0.4" type="github">
  <diagram name="Page-1" id="YyGlhsCikO9xNmpAaFM-">
    <mxGraphModel dx="794" dy="1522" grid="1" gridSize="10" guides="1" tooltips="1" connect="1" arrows="1" fold="1" page="1" pageScale="1" pageWidth="850" pageHeight="1100" math="0" shadow="0">
      <root>
        <mxCell id="0" />
        <mxCell id="1" parent="0" />
        <mxCell id="b8LCp8VfgjH7GL4xYoLx-5" value="" style="edgeStyle=elbowEdgeStyle;rounded=0;orthogonalLoop=1;jettySize=auto;elbow=vertical;html=1;" parent="1" source="b8LCp8VfgjH7GL4xYoLx-1" target="b8LCp8VfgjH7GL4xYoLx-4" edge="1">
          <mxGeometry relative="1" as="geometry" />
        </mxCell>
        <mxCell id="b8LCp8VfgjH7GL4xYoLx-1" value="start" style="strokeWidth=2;html=1;shape=mxgraph.flowchart.terminator;whiteSpace=wrap;" parent="1" vertex="1">
          <mxGeometry x="360" y="-1080" width="100" height="40" as="geometry" />
        </mxCell>
        <mxCell id="b8LCp8VfgjH7GL4xYoLx-12" value="" style="edgeStyle=elbowEdgeStyle;rounded=0;orthogonalLoop=1;jettySize=auto;elbow=vertical;html=1;" parent="1" source="b8LCp8VfgjH7GL4xYoLx-4" edge="1">
          <mxGeometry relative="1" as="geometry">
            <mxPoint x="410" y="-830" as="targetPoint" />
          </mxGeometry>
        </mxCell>
        <mxCell id="b8LCp8VfgjH7GL4xYoLx-4" value="&lt;div&gt;Lo&lt;/div&gt;&lt;div&gt;phi&lt;/div&gt;&lt;div&gt;d&lt;br&gt;&lt;/div&gt;" style="shape=parallelogram;perimeter=parallelogramPerimeter;whiteSpace=wrap;html=1;fixedSize=1;strokeWidth=2;" parent="1" vertex="1">
          <mxGeometry x="350" y="-970" width="120" height="60" as="geometry" />
        </mxCell>
        <mxCell id="b8LCp8VfgjH7GL4xYoLx-9" value="" style="edgeStyle=elbowEdgeStyle;rounded=0;orthogonalLoop=1;jettySize=auto;elbow=vertical;html=1;" parent="1" source="b8LCp8VfgjH7GL4xYoLx-6" target="b8LCp8VfgjH7GL4xYoLx-8" edge="1">
          <mxGeometry relative="1" as="geometry" />
        </mxCell>
        <mxCell id="b8LCp8VfgjH7GL4xYoLx-6" value="Lo" style="rhombus;whiteSpace=wrap;html=1;strokeWidth=2;" parent="1" vertex="1">
          <mxGeometry x="550" y="-840" width="80" height="80" as="geometry" />
        </mxCell>
        <mxCell id="b8LCp8VfgjH7GL4xYoLx-8" value="end" style="strokeWidth=2;html=1;shape=mxgraph.flowchart.terminator;whiteSpace=wrap;" parent="1" vertex="1">
          <mxGeometry x="540" y="-710" width="100" height="40" as="geometry" />
        </mxCell>
        <mxCell id="b8LCp8VfgjH7GL4xYoLx-14" value="" style="edgeStyle=elbowEdgeStyle;rounded=0;orthogonalLoop=1;jettySize=auto;elbow=vertical;html=1;" parent="1" target="b8LCp8VfgjH7GL4xYoLx-6" edge="1">
          <mxGeometry relative="1" as="geometry">
            <mxPoint x="470" y="-800" as="sourcePoint" />
          </mxGeometry>
        </mxCell>
        <mxCell id="Z5SJ0olxjXFo9CVCfVbR-1" value="Lo = phi x d" style="rounded=0;whiteSpace=wrap;html=1;" vertex="1" parent="1">
          <mxGeometry x="360" y="-830" width="120" height="60" as="geometry" />
        </mxCell>
      </root>
    </mxGraphModel>
  </diagram>
</mxfile>
